<svg xmlns="http://www.w3.org/2000/svg" viewBox="22 22 76 76" width="76" height="76" fill="none" stroke-width="6" stroke-linecap="round" stroke-linejoin="round">
  <path d="M40,58 C30,58 28,46 36,43 C33,33 45,29 52,35 C56,25 72,26 72,38 C83,37 86,50 75,54 C73,57 70,58 66,58 Z" stroke="#1e3a5f"/>
  <path d="M54.35,76.75 A3.75,3.75 0 0 0 58.1,73 c0,-2.07 -0.75,-3 -1.5,-4.5 c-1.608,-3.215 0.336,-6.081 3,-9 c0.75,3.75 3,7.35 6,9.75 c3,2.4 4.5,5.25 4.5,8.25 a10.5,10.5 0 1 1 -21,0 c0,-1.73 0.65,-3.44 1.5,-4.5 a3.75,3.75 0 0 0 3.75,3.75 z" stroke="#f59e0b"/>
</svg>
