<svg xmlns="http://www.w3.org/2000/svg" width="480" height="560" viewBox="0 0 480 560"><g color="#1F3A4D" transform="translate(-80,-20)"><g fill="none" stroke="currentColor" stroke-linejoin="round" stroke-linecap="round">
<g transform="translate(250,238) scale(1.06) translate(-250,-238)" stroke-width="9"><path d="M180 234 Q150 234 148 206 Q146 182 172 176 Q176 148 210 152 Q222 124 260 136 Q286 118 308 142 Q340 136 344 168 Q360 174 356 198 Q356 226 326 228 Q316 246 290 238 Q272 250 250 242 Q214 252 196 240 Q186 242 180 234 Z"></path><path d="M198 206 q16 -20 36 -7 q15 11 0 22 q-13 7 -17 -6" stroke-width="6"></path></g>
<g transform="translate(385,300) scale(1.08) translate(-385,-300)" stroke-width="9"><path d="M330 300 Q316 262 336 232 Q330 270 352 270 Q336 230 356 196 Q352 168 374 140 Q372 176 392 178 Q384 140 414 104 Q410 150 430 170 Q438 150 442 128 Q456 168 446 210 Q438 252 410 280 Q380 304 350 304 Q338 304 330 300 Z"></path></g>
<g stroke-width="9"><path d="M284 318 H356 V508 Q356 540 384 562 H256 Q284 540 284 508 Z"></path><line x1="320" y1="324" x2="320" y2="558" stroke-width="6"></line></g></g>
<g fill="currentColor"><rect x="305" y="242" width="30" height="100" rx="3"></rect><rect x="276" y="286" width="88" height="26" rx="3"></rect></g></g></svg>